<svg xmlns="http://www.w3.org/2000/svg" xmlns:xlink="http://www.w3.org/1999/xlink" viewBox="0 0 202.19 72.07"><defs><style>.cls-1,.cls-2{fill:#3b3758;}.cls-2,.cls-4,.cls-5{fill-rule:evenodd;}.cls-3,.cls-4{fill:#2364ae;}.cls-5{fill:url(#GradientFill_3);}</style><linearGradient id="GradientFill_3" x1="20.82" y1="0.5" x2="30.21" y2="44.15" gradientUnits="userSpaceOnUse"><stop offset="0" stop-color="#549ad3"/><stop offset="1" stop-color="#2364ae"/></linearGradient></defs><title>Ativo 6</title><g id="Camada_2" data-name="Camada 2"><g id="Camada_1-2" data-name="Camada 1"><rect class="cls-1" x="65.83" y="24.49" width="3.34" height="13.8"/><polygon class="cls-2" points="87.72 38.29 84.38 38.29 78.8 29.82 78.8 38.29 75.46 38.29 75.46 24.49 78.8 24.49 84.38 33.04 84.38 24.49 87.72 24.49 87.72 38.29"/><polygon class="cls-2" points="103.53 24.49 103.53 27.14 99.78 27.14 99.78 38.29 96.42 38.29 96.42 27.14 92.72 27.14 92.72 24.49 103.53 24.49"/><polygon class="cls-2" points="111.86 27.14 111.86 30.03 116.53 30.03 116.53 32.55 111.86 32.55 111.86 35.61 117.11 35.61 117.11 38.29 108.52 38.29 108.52 24.49 117.11 24.49 117.11 27.14 111.86 27.14"/><path class="cls-2" d="M133.39,25.62a5.4,5.4,0,0,1,2.09,3.44H132a2.65,2.65,0,0,0-1.07-1.18,3.22,3.22,0,0,0-1.74-.44,3.26,3.26,0,0,0-2.54,1.06,4.18,4.18,0,0,0-.95,2.88,4.2,4.2,0,0,0,1,3,3.75,3.75,0,0,0,2.86,1.06,3.4,3.4,0,0,0,3.36-2.52h-4.22v-2.4h7v3.3a6.82,6.82,0,0,1-1.25,2.24,6.44,6.44,0,0,1-2.2,1.68,6.94,6.94,0,0,1-3.05.64,7.28,7.28,0,0,1-3.65-.88A6.21,6.21,0,0,1,123.1,35a8.26,8.26,0,0,1,0-7.3,6.13,6.13,0,0,1,2.4-2.49,7.19,7.19,0,0,1,3.62-.89A6.9,6.9,0,0,1,133.39,25.62Z"/><path class="cls-2" d="M148.53,38.29l-3-5.21h-.76v5.21h-3.34V24.49h5.7a6.13,6.13,0,0,1,2.77.57,3.81,3.81,0,0,1,1.69,1.55,4.43,4.43,0,0,1,.57,2.25,4,4,0,0,1-.83,2.56,4.22,4.22,0,0,1-2.41,1.44l3.28,5.43Zm-3.74-7.5h2.06a2.05,2.05,0,0,0,1.47-.44,1.68,1.68,0,0,0,.47-1.29,1.71,1.71,0,0,0-.48-1.29,2,2,0,0,0-1.46-.47h-2.06Z"/><path class="cls-2" d="M166.41,35.77h-5.17l-.86,2.52h-3.51l5-13.7h3.84l5.06,13.7h-3.55l-.86-2.52Zm-.86-2.54h0l-1.72-5.07-1.74,5.07Z"/><path class="cls-2" d="M185.75,25.74A6.33,6.33,0,0,1,188,29.49h-3.53a3.27,3.27,0,0,0-1.2-1.51,3.38,3.38,0,0,0-1.92-.54A2.94,2.94,0,0,0,179,28.51a4.33,4.33,0,0,0-.9,2.87,4.28,4.28,0,0,0,.9,2.86,2.93,2.93,0,0,0,2.36,1.06,3.31,3.31,0,0,0,1.92-.55,3.19,3.19,0,0,0,1.2-1.48H188A6.39,6.39,0,0,1,185.75,37a6.72,6.72,0,0,1-4.36,1.39,6.94,6.94,0,0,1-3.54-.88A6.2,6.2,0,0,1,175.5,35a8.44,8.44,0,0,1,0-7.3,6.07,6.07,0,0,1,2.35-2.49,6.94,6.94,0,0,1,3.54-.89A6.78,6.78,0,0,1,185.75,25.74Z"/><polygon class="cls-2" points="196.95 27.14 196.95 30.03 201.61 30.03 201.61 32.55 196.95 32.55 196.95 35.61 202.19 35.61 202.19 38.29 193.61 38.29 193.61 24.49 202.19 24.49 202.19 27.14 196.95 27.14"/><rect class="cls-3" x="65.83" y="43.23" width="0.89" height="4.44"/><polygon class="cls-4" points="71.92 47.67 71.04 47.67 69.05 44.65 69.05 47.67 68.16 47.67 68.16 43.23 69.05 43.23 71.04 46.27 71.04 43.23 71.92 43.23 71.92 47.67"/><polygon class="cls-4" points="76.29 43.23 76.29 43.93 75.06 43.93 75.06 47.67 74.17 47.67 74.17 43.93 72.95 43.93 72.95 43.23 76.29 43.23"/><polygon class="cls-4" points="78.2 43.93 78.2 45.08 79.77 45.08 79.77 45.76 78.2 45.76 78.2 46.96 79.96 46.96 79.96 47.67 77.31 47.67 77.31 43.23 79.96 43.23 79.96 43.93 78.2 43.93"/><path class="cls-4" d="M84.5,43.58a1.79,1.79,0,0,1,.69,1.08h-.93a1.08,1.08,0,0,0-.42-.48,1.25,1.25,0,0,0-.68-.18,1.28,1.28,0,0,0-.68.18,1.12,1.12,0,0,0-.46.5,1.68,1.68,0,0,0-.16.77,1.52,1.52,0,0,0,.37,1.09,1.36,1.36,0,0,0,1,.39,1.26,1.26,0,0,0,.82-.29,1.32,1.32,0,0,0,.44-.78H83v-.64h2.24v.86a2,2,0,0,1-.37.81,2,2,0,0,1-.71.59A2.4,2.4,0,0,1,82,47.42a1.94,1.94,0,0,1-.78-.8A2.46,2.46,0,0,1,81,45.45a2.53,2.53,0,0,1,.27-1.18,2,2,0,0,1,.77-.8,2.28,2.28,0,0,1,1.15-.29A2.16,2.16,0,0,1,84.5,43.58Z"/><path class="cls-4" d="M88.84,47.67l-1-1.73h-.39v1.73h-.88V43.23h1.69a1.69,1.69,0,0,1,1.18.37,1.32,1.32,0,0,1,.4,1,1.27,1.27,0,0,1-.28.84,1.3,1.3,0,0,1-.8.45l1.1,1.78Zm-1.43-2.34h.73c.51,0,.76-.23.76-.68a.68.68,0,0,0-.18-.5.82.82,0,0,0-.58-.18h-.73Z"/><path class="cls-4" d="M93.77,46.77H92l-.31.9h-.94l1.64-4.39h1L95,47.67h-.94l-.31-.9Zm-.24-.67h0l-.65-1.87-.65,1.87Z"/><polygon class="cls-4" points="99.81 47.67 98.92 47.67 96.93 44.65 96.93 47.67 96.04 47.67 96.04 43.23 96.93 43.23 98.92 46.27 98.92 43.23 99.81 43.23 99.81 47.67"/><path class="cls-4" d="M104.88,46.6a1.93,1.93,0,0,1-.81.79,2.67,2.67,0,0,1-1.24.28h-1.58V43.23h1.58a2.67,2.67,0,0,1,1.24.27,1.89,1.89,0,0,1,.81.77,2.46,2.46,0,0,1,.27,1.17,2.39,2.39,0,0,1-.27,1.16Zm-1-.1h0a1.41,1.41,0,0,0,.39-1.06,1.4,1.4,0,0,0-.39-1.06,1.54,1.54,0,0,0-1.11-.38h-.62v2.88h.62A1.54,1.54,0,0,0,103.86,46.5Z"/><path class="cls-4" d="M109.55,43.45a2.15,2.15,0,0,1,.8.81,2.53,2.53,0,0,1,0,2.35,2.08,2.08,0,0,1-.8.81,2.16,2.16,0,0,1-1.13.29,2.19,2.19,0,0,1-1.13-.29,2.08,2.08,0,0,1-.8-.81,2.53,2.53,0,0,1,0-2.35,2.15,2.15,0,0,1,.8-.81,2.29,2.29,0,0,1,1.13-.29,2.26,2.26,0,0,1,1.13.29Zm-1.81.71h0a1.14,1.14,0,0,0-.47.5,1.71,1.71,0,0,0-.16.77,1.75,1.75,0,0,0,.16.78,1.2,1.2,0,0,0,.47.5,1.25,1.25,0,0,0,.68.18,1.31,1.31,0,0,0,.69-.18,1.24,1.24,0,0,0,.46-.5,1.76,1.76,0,0,0,.17-.78,1.71,1.71,0,0,0-.17-.77,1.18,1.18,0,0,0-.46-.5,1.31,1.31,0,0,0-.69-.18A1.25,1.25,0,0,0,107.74,44.16Z"/><path class="cls-4" d="M117.32,43.61a2,2,0,0,1,.73,1.16h-.93a1.25,1.25,0,0,0-.45-.56,1.29,1.29,0,0,0-.74-.21,1.16,1.16,0,0,0-.63.18,1.08,1.08,0,0,0-.44.5,1.91,1.91,0,0,0,0,1.53,1.13,1.13,0,0,0,.44.5,1.16,1.16,0,0,0,.63.18,1.21,1.21,0,0,0,1.19-.78h.93a2.05,2.05,0,0,1-.73,1.17,2.18,2.18,0,0,1-1.37.43,2.21,2.21,0,0,1-1.13-.29,2,2,0,0,1-.75-.8,2.69,2.69,0,0,1,0-2.35,2,2,0,0,1,.75-.8,2.18,2.18,0,0,1,1.13-.29A2.12,2.12,0,0,1,117.32,43.61Z"/><polygon class="cls-4" points="120.16 46.99 121.65 46.99 121.65 47.67 119.27 47.67 119.27 43.23 120.16 43.23 120.16 46.99"/><rect class="cls-3" x="122.69" y="43.23" width="0.89" height="4.44"/><polygon class="cls-4" points="125.91 43.93 125.91 45.08 127.48 45.08 127.48 45.76 125.91 45.76 125.91 46.96 127.67 46.96 127.67 47.67 125.02 47.67 125.02 43.23 127.67 43.23 127.67 43.93 125.91 43.93"/><polygon class="cls-4" points="132.72 47.67 131.83 47.67 129.84 44.65 129.84 47.67 128.95 47.67 128.95 43.23 129.84 43.23 131.83 46.27 131.83 43.23 132.72 43.23 132.72 47.67"/><polygon class="cls-4" points="137.08 43.23 137.08 43.93 135.85 43.93 135.85 47.67 134.97 47.67 134.97 43.93 133.75 43.93 133.75 43.23 137.08 43.23"/><polygon class="cls-4" points="138.99 43.93 138.99 45.08 140.56 45.08 140.56 45.76 138.99 45.76 138.99 46.96 140.75 46.96 140.75 47.67 138.1 47.67 138.1 43.23 140.75 43.23 140.75 43.93 138.99 43.93"/><polygon class="cls-4" points="144.93 43.93 144.93 45.08 146.5 45.08 146.5 45.76 144.93 45.76 144.93 46.96 146.69 46.96 146.69 47.67 144.04 47.67 144.04 43.23 146.69 43.23 146.69 43.93 144.93 43.93"/><path class="cls-4" d="M150.86,46v1.65H150V43.23h1.62a1.65,1.65,0,0,1,1.18.37,1.36,1.36,0,0,1,.4,1,1.28,1.28,0,0,1-.41,1,1.66,1.66,0,0,1-1.17.38Zm1.41-1.39h0a.69.69,0,0,0-.18-.51.83.83,0,0,0-.6-.18h-.63v1.37h.63C152,45.31,152.27,45.08,152.27,44.63Z"/><path class="cls-4" d="M156.57,47.67l-1-1.73h-.4v1.73h-.88V43.23H156a1.67,1.67,0,0,1,1.18.37,1.41,1.41,0,0,1,.13,1.84,1.35,1.35,0,0,1-.81.45l1.1,1.78Zm-1.43-2.34h.73c.51,0,.77-.23.77-.68a.69.69,0,0,0-.19-.5.81.81,0,0,0-.58-.18h-.73Z"/><path class="cls-4" d="M161.87,43.45a2.15,2.15,0,0,1,.8.81,2.53,2.53,0,0,1,0,2.35,2.08,2.08,0,0,1-.8.81,2.16,2.16,0,0,1-1.13.29,2.19,2.19,0,0,1-1.13-.29,2.08,2.08,0,0,1-.8-.81,2.53,2.53,0,0,1,0-2.35,2.15,2.15,0,0,1,.8-.81,2.29,2.29,0,0,1,1.13-.29,2.26,2.26,0,0,1,1.13.29Zm-1.82.71h0a1.18,1.18,0,0,0-.46.5,1.71,1.71,0,0,0-.16.77,1.75,1.75,0,0,0,.16.78,1.24,1.24,0,0,0,.46.5,1.41,1.41,0,0,0,1.38,0,1.24,1.24,0,0,0,.46-.5,1.76,1.76,0,0,0,.17-.78,1.71,1.71,0,0,0-.17-.77,1.18,1.18,0,0,0-.46-.5,1.41,1.41,0,0,0-1.38,0Z"/><polygon class="cls-4" points="166.96 43.23 166.96 43.93 165.09 43.93 165.09 45.12 166.58 45.12 166.58 45.8 165.09 45.8 165.09 47.67 164.2 47.67 164.2 43.23 166.96 43.23"/><rect class="cls-3" x="168.03" y="43.23" width="0.89" height="4.44"/><path class="cls-4" d="M173.23,47.08a1.34,1.34,0,0,1-.51.46,1.8,1.8,0,0,1-.81.17,2,2,0,0,1-.84-.16,1.46,1.46,0,0,1-.6-.46,1.32,1.32,0,0,1-.25-.71h.94a.74.74,0,0,0,.22.45.67.67,0,0,0,.49.18.62.62,0,0,0,.43-.14.52.52,0,0,0,.15-.38.51.51,0,0,0-.12-.35.77.77,0,0,0-.31-.21,4.16,4.16,0,0,0-.5-.19,6.2,6.2,0,0,1-.68-.28,1.2,1.2,0,0,1-.45-.39,1.15,1.15,0,0,1-.18-.67,1.08,1.08,0,0,1,.41-.91,1.69,1.69,0,0,1,1.09-.33,1.76,1.76,0,0,1,1.12.34,1.3,1.3,0,0,1,.48.91h-1a.62.62,0,0,0-.2-.39.61.61,0,0,0-.45-.16.56.56,0,0,0-.39.13.54.54,0,0,0,0,.7,1,1,0,0,0,.3.21l.49.18a6.27,6.27,0,0,1,.69.29,1.12,1.12,0,0,1,.65,1.08A1.24,1.24,0,0,1,173.23,47.08Z"/><path class="cls-4" d="M177.49,47.08a1.24,1.24,0,0,1-.5.46,1.87,1.87,0,0,1-.82.17,2.06,2.06,0,0,1-.84-.16,1.43,1.43,0,0,1-.59-.46,1.33,1.33,0,0,1-.26-.71h1a.73.73,0,0,0,.21.45.7.7,0,0,0,.5.18.61.61,0,0,0,.42-.14.52.52,0,0,0,.15-.38.51.51,0,0,0-.12-.35.81.81,0,0,0-.3-.21,3.8,3.8,0,0,0-.51-.19,7.15,7.15,0,0,1-.68-.28,1.38,1.38,0,0,1-.45-.39,1.15,1.15,0,0,1-.18-.67,1.11,1.11,0,0,1,.41-.91,1.71,1.71,0,0,1,1.09-.33,1.79,1.79,0,0,1,1.13.34,1.33,1.33,0,0,1,.47.91h-1a.62.62,0,0,0-.2-.39.58.58,0,0,0-.44-.16.57.57,0,0,0-.4.13.47.47,0,0,0-.15.37.48.48,0,0,0,.12.33.81.81,0,0,0,.29.21l.49.18a5.53,5.53,0,0,1,.69.29,1.22,1.22,0,0,1,.46.39,1.15,1.15,0,0,1,.19.69A1.24,1.24,0,0,1,177.49,47.08Z"/><rect class="cls-3" x="178.93" y="43.23" width="0.89" height="4.44"/><path class="cls-4" d="M184.41,43.45a2.08,2.08,0,0,1,.8.81,2.45,2.45,0,0,1,0,2.35,2,2,0,0,1-.8.81,2.33,2.33,0,0,1-2.25,0,2,2,0,0,1-.8-.81,2.45,2.45,0,0,1,0-2.35,2.08,2.08,0,0,1,.8-.81,2.33,2.33,0,0,1,2.25,0Zm-1.81.71h0a1.12,1.12,0,0,0-.46.5,1.71,1.71,0,0,0-.17.77,1.76,1.76,0,0,0,.17.78,1.17,1.17,0,0,0,.46.5,1.39,1.39,0,0,0,1.37,0,1.17,1.17,0,0,0,.46-.5,1.76,1.76,0,0,0,.17-.78,1.71,1.71,0,0,0-.17-.77,1.12,1.12,0,0,0-.46-.5,1.39,1.39,0,0,0-1.37,0Z"/><polygon class="cls-4" points="190.51 47.67 189.62 47.67 187.63 44.65 187.63 47.67 186.74 47.67 186.74 43.23 187.63 43.23 189.62 46.27 189.62 43.23 190.51 43.23 190.51 47.67"/><path class="cls-4" d="M194.56,46.77h-1.78l-.31.9h-.94l1.64-4.39h1l1.63,4.39h-.94l-.31-.9Zm-.24-.67h0l-.65-1.87L193,46.1Z"/><rect class="cls-3" x="196.83" y="43.23" width="0.89" height="4.44"/><path class="cls-4" d="M202,47.08a1.24,1.24,0,0,1-.5.46,1.8,1.8,0,0,1-.81.17,2,2,0,0,1-.84-.16,1.46,1.46,0,0,1-.6-.46,1.32,1.32,0,0,1-.25-.71H200a.69.69,0,0,0,.22.45.67.67,0,0,0,.49.18.62.62,0,0,0,.43-.14.58.58,0,0,0,0-.73.74.74,0,0,0-.3-.21,4.16,4.16,0,0,0-.5-.19,6.2,6.2,0,0,1-.68-.28,1.2,1.2,0,0,1-.45-.39,1.15,1.15,0,0,1-.19-.67,1.09,1.09,0,0,1,.42-.91,1.69,1.69,0,0,1,1.09-.33,1.76,1.76,0,0,1,1.12.34,1.3,1.3,0,0,1,.48.91h-1A.67.67,0,0,0,201,44a.61.61,0,0,0-.45-.16.56.56,0,0,0-.39.13.44.44,0,0,0-.16.37.48.48,0,0,0,.12.33,1,1,0,0,0,.3.21l.48.18a5.77,5.77,0,0,1,.7.29,1.09,1.09,0,0,1,.64,1.08A1.15,1.15,0,0,1,202,47.08Z"/><path class="cls-5" d="M56.56,33.49l-3.75-.37c0-.31-.09-.62-.14-.94a28.86,28.86,0,0,0-1.59-5.81c3-2.16,3.46-2.31,3.19-2.78-2.26-3.93-2.2-4.13-2.67-4.13-.14,0-3.47,1.53-3.6,1.59a24.91,24.91,0,0,0-4.7-4.7c1.54-3.41,1.85-3.74,1.38-4l-3.92-2.26a.48.48,0,0,0-.58.12L38,13.27a23.76,23.76,0,0,0-3.4-1.15c-.34-.09-.81-.2-1.4-.31L33,16.27a20.17,20.17,0,0,1,14.66,13.4L48,31.25A20.13,20.13,0,0,1,30.89,56.16c-.36,0-.72.08-1.08.1,0,1,1.53-29.69,2.38-46.09a9.19,9.19,0,0,1,1-4.29c.27-.51,2.37-4.34,6-4.24a6,6,0,0,1,3.71,1.53A3.17,3.17,0,0,0,40.7,4.78h0a2.16,2.16,0,0,0,0,1.71,3.06,3.06,0,0,0,2.57,2,2.4,2.4,0,0,0,.86-.09,2.77,2.77,0,0,0,2-2.2.5.5,0,0,0,0-.12,4.9,4.9,0,0,0-1.56-4A11,11,0,0,0,37.28.05c-4.16.47-7.94,3.86-9.72,8.82a17.31,17.31,0,0,0-.68,2.54l-1.1.1a24.18,24.18,0,0,0-4,.78,22.25,22.25,0,0,0-2.77,1C16.74,10.15,16.81,10,16.4,10c-.19,0-3.95,2.21-4.12,2.31a.49.49,0,0,0-.18.56l1.56,3.45A24.91,24.91,0,0,0,9,21.05c-3.41-1.54-3.74-1.85-4-1.38L2.69,23.59a.49.49,0,0,0,.12.58l3.07,2.2A24.33,24.33,0,0,0,4.15,32.8c-3.72.37-4.15.27-4.15.81v4.52a.49.49,0,0,0,.4.44l3.75.37c.1.71.23,1.46.39,2.24A30.19,30.19,0,0,0,5.88,45.7c-3,2.16-3.46,2.31-3.19,2.78,2.26,3.93,2.2,4.13,2.67,4.13.14,0,3.47-1.53,3.6-1.59a24.91,24.91,0,0,0,4.7,4.7c-1.54,3.39-1.85,3.74-1.38,4L16.2,62a.49.49,0,0,0,.58-.12L19,58.8a24.15,24.15,0,0,0,3.13,1.08c.3.08.81.21,1.47.34a32.37,32.37,0,0,0,.29-3.92l0-.53A20.2,20.2,0,0,1,10.36,44.9l-.55-1.56A20.15,20.15,0,0,1,25.44,16c.36-.05.72-.1,1.08-.13,0-.62.05-1.23.07-1.85,0-.22,0-.44,0-.65,0,.21,0,.43,0,.65L24.94,56.32c-.11,7.31-2.27,13-5.45,13.95a7.41,7.41,0,0,1-2.51.21,7.11,7.11,0,0,1-3.31-1.26,5.08,5.08,0,0,0,2-2.07h0a2.42,2.42,0,0,0-.69-3,2.72,2.72,0,0,0-1-.48l-.13,0a2.51,2.51,0,0,0-2.95,2.18,3.81,3.81,0,0,0,0,.59,5.12,5.12,0,0,0,1.76,3.67A10.59,10.59,0,0,0,19.69,72c3.8-.48,7.2-3.43,8.91-7.71a15.06,15.06,0,0,0,.93-3.62h0c.36,0,.72,0,1.09-.07a24.35,24.35,0,0,0,5.74-1.18c.7-.24,1.26-.47,1.62-.62,2.17,3,2.31,3.46,2.78,3.19,4-2.28,4.32-2.34,4.1-2.83L43.3,55.72A24.91,24.91,0,0,0,48,51c3.33,1.5,3.74,1.84,4,1.37l2.26-3.91a.49.49,0,0,0-.12-.58l-3.07-2.2a24,24,0,0,0,1.73-6.43C56.53,38.9,57,39,57,38.46,57,33.91,57.09,33.55,56.56,33.49Z"/><path class="cls-2" d="M44.53,2.12A11,11,0,0,0,37.28.05c-4.16.47-7.94,3.86-9.72,8.82a17.32,17.32,0,0,0-1,5.14L24.94,56.32c-.11,7.31-2.27,13-5.45,13.95a7.41,7.41,0,0,1-2.51.21,7.11,7.11,0,0,1-3.31-1.26,5.08,5.08,0,0,0,2-2.07h0a2.42,2.42,0,0,0-.69-3,2.72,2.72,0,0,0-1-.48l-.13,0a2.51,2.51,0,0,0-2.95,2.18,3.81,3.81,0,0,0,0,.59,5.12,5.12,0,0,0,1.76,3.67A10.59,10.59,0,0,0,19.69,72c3.8-.48,7.2-3.43,8.91-7.71a15.3,15.3,0,0,0,1-4.92q1.28-24.6,2.54-49.2a9.19,9.19,0,0,1,1-4.29c.27-.51,2.37-4.34,6-4.24a6,6,0,0,1,3.71,1.53A3.17,3.17,0,0,0,40.7,4.78h0a2.16,2.16,0,0,0,0,1.71,3.06,3.06,0,0,0,2.57,2,2.4,2.4,0,0,0,.86-.09,2.77,2.77,0,0,0,2-2.2.5.5,0,0,0,0-.12A4.9,4.9,0,0,0,44.53,2.12Z"/></g></g></svg>