<svg xmlns="http://www.w3.org/2000/svg" viewBox="0 0 202.19 34.69"><defs><style>.cls-1,.cls-2{fill:#fff;}.cls-2{fill-rule:evenodd;}</style></defs><title>Ativo 3</title><g id="Camada_2" data-name="Camada 2"><g id="Camada_1-2" data-name="Camada 1"><rect class="cls-1" y="0.26" width="4.95" height="20.46"/><polygon class="cls-2" points="32.46 20.72 27.5 20.72 19.23 8.16 19.23 20.72 14.28 20.72 14.28 0.26 19.23 0.26 27.5 12.94 27.5 0.26 32.46 0.26 32.46 20.72"/><polygon class="cls-2" points="55.9 0.26 55.9 4.19 50.34 4.19 50.34 20.72 45.36 20.72 45.36 4.19 39.87 4.19 39.87 0.26 55.9 0.26"/><polygon class="cls-2" points="68.25 4.19 68.25 8.47 75.18 8.47 75.18 12.21 68.25 12.21 68.25 16.75 76.04 16.75 76.04 20.72 63.3 20.72 63.3 0.26 76.04 0.26 76.04 4.19 68.25 4.19"/><path class="cls-2" d="M100.18,1.93A8,8,0,0,1,103.27,7H98.11a3.94,3.94,0,0,0-1.58-1.75,5.36,5.36,0,0,0-6.35.92,6.2,6.2,0,0,0-1.41,4.27,6.23,6.23,0,0,0,1.49,4.45,5.54,5.54,0,0,0,4.24,1.57,5,5,0,0,0,5-3.73H93.22V9.2H103.6v4.89a10,10,0,0,1-1.85,3.32,9.56,9.56,0,0,1-3.26,2.49,10.28,10.28,0,0,1-4.53,1,10.77,10.77,0,0,1-5.41-1.3,9.19,9.19,0,0,1-3.63-3.71A12.24,12.24,0,0,1,84.92,5a9,9,0,0,1,3.56-3.69A10.58,10.58,0,0,1,93.84,0,10.26,10.26,0,0,1,100.18,1.93Z"/><path class="cls-2" d="M122.62,20.72,118.18,13h-1.13v7.73h-5V.26h8.45a9.24,9.24,0,0,1,4.11.84,5.68,5.68,0,0,1,2.5,2.3A6.52,6.52,0,0,1,128,6.74a5.94,5.94,0,0,1-1.23,3.79,6.28,6.28,0,0,1-3.58,2.14l4.87,8ZM117.08,9.6h3A3,3,0,0,0,122.31,9,2.49,2.49,0,0,0,123,7a2.56,2.56,0,0,0-.71-1.91,3,3,0,0,0-2.17-.7h-3Z"/><path class="cls-2" d="M149.14,17h-7.67l-1.27,3.74H135L142.4.41h5.7l7.5,20.31h-5.26L149.06,17Zm-1.28-3.76h0L145.31,5.7l-2.58,7.52Z"/><path class="cls-2" d="M177.81,2.11a9.4,9.4,0,0,1,3.34,5.56h-5.23a4.91,4.91,0,0,0-1.78-2.24,5.12,5.12,0,0,0-2.85-.8,4.4,4.4,0,0,0-3.49,1.59,6.44,6.44,0,0,0-1.33,4.25,6.34,6.34,0,0,0,1.33,4.24,4.38,4.38,0,0,0,3.5,1.58,5,5,0,0,0,2.85-.82,4.78,4.78,0,0,0,1.78-2.19h5.22a9.49,9.49,0,0,1-3.34,5.53,10,10,0,0,1-6.46,2.06,10.24,10.24,0,0,1-5.25-1.31,9.13,9.13,0,0,1-3.49-3.72,12.51,12.51,0,0,1,0-10.82,9.06,9.06,0,0,1,3.49-3.69A10.25,10.25,0,0,1,171.35,0,10,10,0,0,1,177.81,2.11Z"/><polygon class="cls-2" points="194.42 4.19 194.42 8.47 201.33 8.47 201.33 12.21 194.42 12.21 194.42 16.75 202.19 16.75 202.19 20.72 189.47 20.72 189.47 0.26 202.19 0.26 202.19 4.19 194.42 4.19"/><rect class="cls-1" y="28.04" width="1.32" height="6.58"/><polygon class="cls-2" points="9.03 34.63 7.72 34.63 4.78 30.15 4.78 34.63 3.46 34.63 3.46 28.05 4.78 28.05 7.72 32.55 7.72 28.05 9.03 28.05 9.03 34.63"/><polygon class="cls-2" points="15.51 28.05 15.51 29.08 13.69 29.08 13.69 34.63 12.37 34.63 12.37 29.08 10.56 29.08 10.56 28.05 15.51 28.05"/><polygon class="cls-2" points="18.34 29.08 18.34 30.79 20.67 30.79 20.67 31.8 18.34 31.8 18.34 33.58 20.95 33.58 20.95 34.63 17.02 34.63 17.02 28.05 20.95 28.05 20.95 29.08 18.34 29.08"/><path class="cls-2" d="M27.68,28.56a2.69,2.69,0,0,1,1,1.61H27.33a1.57,1.57,0,0,0-.63-.72,2.07,2.07,0,0,0-2,0,1.62,1.62,0,0,0-.68.74,2.53,2.53,0,0,0-.24,1.15A2.2,2.2,0,0,0,24.32,33a2,2,0,0,0,1.48.58A1.9,1.9,0,0,0,27,33.1a2,2,0,0,0,.65-1.16H25.46V31h3.32v1.27a2.93,2.93,0,0,1-.55,1.2,3.07,3.07,0,0,1-1.05.88,3.57,3.57,0,0,1-3.2-.09,2.89,2.89,0,0,1-1.16-1.19,3.69,3.69,0,0,1-.33-1.73,3.78,3.78,0,0,1,.4-1.75A2.93,2.93,0,0,1,24,28.4a3.36,3.36,0,0,1,1.7-.43A3.18,3.18,0,0,1,27.68,28.56Z"/><path class="cls-2" d="M34.12,34.63l-1.48-2.57h-.58v2.57H30.75V28h2.51a2.57,2.57,0,0,1,1.75.55,2,2,0,0,1,.59,1.49,1.86,1.86,0,0,1-.41,1.24A2,2,0,0,1,34,32l1.63,2.64ZM32,31.16h1.08c.76,0,1.13-.34,1.13-1a1,1,0,0,0-.27-.74,1.22,1.22,0,0,0-.86-.27H32Z"/><path class="cls-2" d="M41.43,33.29H38.8l-.46,1.34H37l2.43-6.51h1.49l2.38,6.51H41.86l-.46-1.34Zm-.36-1h0l-1-2.77-1,2.77Z"/><polygon class="cls-2" points="50.38 34.63 49.06 34.63 46.11 30.15 46.11 34.63 44.79 34.63 44.79 28.05 46.11 28.05 49.06 32.55 49.06 28.05 50.38 28.05 50.38 34.63"/><path class="cls-2" d="M57.9,33a2.82,2.82,0,0,1-1.2,1.17,3.91,3.91,0,0,1-1.84.42H52.52V28h2.34a4,4,0,0,1,1.84.41,2.7,2.7,0,0,1,1.2,1.14,3.58,3.58,0,0,1,.4,1.73A3.43,3.43,0,0,1,57.9,33Zm-1.48-.15h0a2.41,2.41,0,0,0,0-3.14,2.26,2.26,0,0,0-1.65-.56h-.92v4.27h.92a2.3,2.3,0,0,0,1.62-.57Z"/><path class="cls-2" d="M64.83,28.37A3.23,3.23,0,0,1,66,29.57a3.78,3.78,0,0,1,0,3.49,3,3,0,0,1-1.18,1.2,3.29,3.29,0,0,1-1.68.43,3.23,3.23,0,0,1-1.67-.43,3.12,3.12,0,0,1-1.19-1.2,3.78,3.78,0,0,1,0-3.49,3.19,3.19,0,0,1,1.19-1.2,3.46,3.46,0,0,1,1.67-.43A3.39,3.39,0,0,1,64.83,28.37Zm-2.69,1.05h0a1.67,1.67,0,0,0-.69.75,2.46,2.46,0,0,0-.24,1.14,2.53,2.53,0,0,0,.24,1.15,1.7,1.7,0,0,0,.69.74,2,2,0,0,0,2,0,1.76,1.76,0,0,0,.69-.74,2.68,2.68,0,0,0,.25-1.15,2.6,2.6,0,0,0-.25-1.14,1.78,1.78,0,0,0-.69-.75,2.11,2.11,0,0,0-2,0Z"/><path class="cls-2" d="M76.35,28.61a3,3,0,0,1,1.08,1.72H76.05a1.83,1.83,0,0,0-.67-.83,1.9,1.9,0,0,0-1.09-.31,1.73,1.73,0,0,0-.94.26,1.66,1.66,0,0,0-.65.74,2.8,2.8,0,0,0,0,2.27,1.67,1.67,0,0,0,.65.74,1.74,1.74,0,0,0,.94.27,1.79,1.79,0,0,0,1.76-1.15h1.38a3.06,3.06,0,0,1-1.08,1.73,3.23,3.23,0,0,1-2,.64,3.29,3.29,0,0,1-1.68-.43,3,3,0,0,1-1.11-1.19,3.94,3.94,0,0,1,0-3.48,3,3,0,0,1,1.11-1.19A3.29,3.29,0,0,1,74.32,28,3.15,3.15,0,0,1,76.35,28.61Z"/><polygon class="cls-2" points="80.56 33.62 82.77 33.62 82.77 34.63 79.24 34.63 79.24 28.05 80.56 28.05 80.56 33.62"/><rect class="cls-1" x="84.31" y="28.04" width="1.32" height="6.58"/><polygon class="cls-2" points="89.08 29.08 89.08 30.79 91.41 30.79 91.41 31.8 89.08 31.8 89.08 33.58 91.69 33.58 91.69 34.63 87.77 34.63 87.77 28.05 91.69 28.05 91.69 29.08 89.08 29.08"/><polygon class="cls-2" points="99.18 34.63 97.86 34.63 94.91 30.15 94.91 34.63 93.59 34.63 93.59 28.05 94.91 28.05 97.86 32.55 97.86 28.05 99.18 28.05 99.18 34.63"/><polygon class="cls-2" points="105.65 28.05 105.65 29.08 103.82 29.08 103.82 34.63 102.52 34.63 102.52 29.08 100.71 29.08 100.71 28.05 105.65 28.05"/><polygon class="cls-2" points="108.48 29.08 108.48 30.79 110.81 30.79 110.81 31.8 108.48 31.8 108.48 33.58 111.09 33.58 111.09 34.63 107.16 34.63 107.16 28.05 111.09 28.05 111.09 29.08 108.48 29.08"/><polygon class="cls-2" points="117.29 29.08 117.29 30.79 119.61 30.79 119.61 31.8 117.29 31.8 117.29 33.58 119.9 33.58 119.9 34.63 115.97 34.63 115.97 28.05 119.9 28.05 119.9 29.08 117.29 29.08"/><path class="cls-2" d="M126.08,32.15V34.6H124.8V28h2.41a2.47,2.47,0,0,1,1.75.55,2.07,2.07,0,0,1,.59,1.49,1.89,1.89,0,0,1-.61,1.48,2.46,2.46,0,0,1-1.73.56Zm2.09-2.06h0a1,1,0,0,0-.27-.76,1.24,1.24,0,0,0-.89-.26h-.93v2H127c.76,0,1.16-.31,1.16-1Z"/><path class="cls-2" d="M134.55,34.63l-1.49-2.57h-.59v2.57h-1.3V28h2.53a2.52,2.52,0,0,1,1.75.55,2.09,2.09,0,0,1,.19,2.73,2,2,0,0,1-1.2.67l1.63,2.64Zm-2.12-3.47h1.08c.75,0,1.14-.34,1.14-1a1,1,0,0,0-.28-.74,1.22,1.22,0,0,0-.86-.27h-1.08Z"/><path class="cls-2" d="M142.4,28.37a3.19,3.19,0,0,1,1.19,1.2,3.78,3.78,0,0,1,0,3.49,3.05,3.05,0,0,1-1.19,1.2,3.23,3.23,0,0,1-1.67.43,3.29,3.29,0,0,1-1.68-.43,3,3,0,0,1-1.18-1.2,3.78,3.78,0,0,1,0-3.49,3.23,3.23,0,0,1,1.18-1.2,3.53,3.53,0,0,1,1.68-.43A3.35,3.35,0,0,1,142.4,28.37Zm-2.69,1.05h0a1.78,1.78,0,0,0-.69.75,2.59,2.59,0,0,0-.23,1.14,2.66,2.66,0,0,0,.23,1.15,1.76,1.76,0,0,0,.69.74,2.06,2.06,0,0,0,2,0,1.74,1.74,0,0,0,.68-.74,2.55,2.55,0,0,0,.26-1.15,2.48,2.48,0,0,0-.26-1.14,1.76,1.76,0,0,0-.68-.75A2.11,2.11,0,0,0,139.71,29.42Z"/><polygon class="cls-2" points="149.95 28.05 149.95 29.08 147.18 29.08 147.18 30.85 149.39 30.85 149.39 31.86 147.18 31.86 147.18 34.63 145.86 34.63 145.86 28.05 149.95 28.05"/><rect class="cls-1" x="151.54" y="28.04" width="1.32" height="6.58"/><path class="cls-2" d="M159.25,33.75a2,2,0,0,1-.76.69,2.72,2.72,0,0,1-1.2.25,2.92,2.92,0,0,1-1.24-.24,2.13,2.13,0,0,1-.89-.68,1.83,1.83,0,0,1-.37-1.05h1.39a1,1,0,0,0,.33.66,1,1,0,0,0,.72.27.93.93,0,0,0,.64-.21.74.74,0,0,0,.22-.56.71.71,0,0,0-.18-.52,1,1,0,0,0-.46-.31,4.7,4.7,0,0,0-.74-.28,8.8,8.8,0,0,1-1-.42,1.64,1.64,0,0,1-.94-1.57,1.6,1.6,0,0,1,.61-1.35,2.94,2.94,0,0,1,3.28,0,1.92,1.92,0,0,1,.71,1.34h-1.49a.9.9,0,0,0-.29-.57,1,1,0,0,0-1.25,0,.81.81,0,0,0,0,1,1.39,1.39,0,0,0,.45.31l.72.27a7.72,7.72,0,0,1,1,.43,1.65,1.65,0,0,1,1,1.6A1.78,1.78,0,0,1,159.25,33.75Z"/><path class="cls-2" d="M165.57,33.75a1.85,1.85,0,0,1-.75.69,2.79,2.79,0,0,1-1.21.25,3,3,0,0,1-1.25-.24,2.15,2.15,0,0,1-.87-.68,2,2,0,0,1-.39-1.05h1.49a1,1,0,0,0,.31.66,1,1,0,0,0,.74.27.88.88,0,0,0,.62-.21.85.85,0,0,0,.05-1.08,1.25,1.25,0,0,0-.45-.31,4.93,4.93,0,0,0-.76-.28,8.8,8.8,0,0,1-1-.42,2,2,0,0,1-.67-.58,1.72,1.72,0,0,1-.27-1,1.67,1.67,0,0,1,.61-1.35,2.55,2.55,0,0,1,1.62-.49,2.63,2.63,0,0,1,1.67.51,2,2,0,0,1,.7,1.34h-1.48a.91.91,0,0,0-.3-.57.84.84,0,0,0-.65-.24.86.86,0,0,0-.6.19.7.7,0,0,0-.22.55.72.72,0,0,0,.18.49,1.22,1.22,0,0,0,.43.31l.73.27a7.6,7.6,0,0,1,1,.43,1.73,1.73,0,0,1,.68.58,1.68,1.68,0,0,1,.28,1A1.79,1.79,0,0,1,165.57,33.75Z"/><rect class="cls-1" x="167.7" y="28.04" width="1.32" height="6.58"/><path class="cls-2" d="M175.83,28.37a3,3,0,0,1,1.18,1.2,3.61,3.61,0,0,1,0,3.49,3,3,0,0,1-1.18,1.2,3.48,3.48,0,0,1-3.34,0,3.05,3.05,0,0,1-1.19-1.2,3.66,3.66,0,0,1,0-3.49,3.12,3.12,0,0,1,1.19-1.2A3.48,3.48,0,0,1,175.83,28.37Zm-2.69,1.05h0a1.65,1.65,0,0,0-.68.75,2.47,2.47,0,0,0-.25,1.14,2.54,2.54,0,0,0,.25,1.15,1.74,1.74,0,0,0,.68.74,2,2,0,0,0,2,0,1.7,1.7,0,0,0,.69-.74,2.68,2.68,0,0,0,.25-1.15,2.6,2.6,0,0,0-.25-1.14,1.67,1.67,0,0,0-.69-.75A2.09,2.09,0,0,0,173.14,29.42Z"/><polygon class="cls-2" points="184.87 34.63 183.55 34.63 180.6 30.15 180.6 34.63 179.28 34.63 179.28 28.05 180.6 28.05 183.55 32.55 183.55 28.05 184.87 28.05 184.87 34.63"/><path class="cls-2" d="M190.88,33.29h-2.64l-.46,1.34h-1.4l2.44-6.51h1.48l2.42,6.51h-1.4l-.46-1.34Zm-.36-1h0l-1-2.77-1,2.77Z"/></g></g></svg>