<svg xmlns="http://www.w3.org/2000/svg" xmlns:xlink="http://www.w3.org/1999/xlink" viewBox="0 0 201.91 71.97"><defs><style>.cls-1,.cls-2{fill:#595a5c;}.cls-2,.cls-4,.cls-5{fill-rule:evenodd;}.cls-3,.cls-4{fill:#aeb0b1;}.cls-5{fill:url(#Gradiente_sem_nome_8);}</style><linearGradient id="Gradiente_sem_nome_8" y1="35.98" x2="56.89" y2="35.98" gradientUnits="userSpaceOnUse"><stop offset="0" stop-color="#9fa1a3"/><stop offset="1" stop-color="#9fa1a3"/></linearGradient></defs><title>Ativo 5</title><g id="Camada_2" data-name="Camada 2"><g id="Camada_1-2" data-name="Camada 1"><rect class="cls-1" x="65.74" y="24.46" width="3.33" height="13.78"/><polygon class="cls-2" points="87.59 38.23 84.26 38.23 78.69 29.78 78.69 38.23 75.36 38.23 75.36 24.46 78.69 24.46 84.26 32.99 84.26 24.46 87.59 24.46 87.59 38.23"/><polygon class="cls-2" points="103.38 24.46 103.38 27.11 99.64 27.11 99.64 38.23 96.29 38.23 96.29 27.11 92.58 27.11 92.58 24.46 103.38 24.46"/><polygon class="cls-2" points="111.7 27.11 111.7 29.99 116.36 29.99 116.36 32.5 111.7 32.5 111.7 35.56 116.94 35.56 116.94 38.23 108.37 38.23 108.37 24.46 116.94 24.46 116.94 27.11 111.7 27.11"/><path class="cls-2" d="M133.21,25.59A5.38,5.38,0,0,1,135.29,29h-3.53a2.65,2.65,0,0,0-1.07-1.18A3.29,3.29,0,0,0,129,27.4a3.22,3.22,0,0,0-2.53,1.06,4.13,4.13,0,0,0-1,2.87,4.23,4.23,0,0,0,1,3,3.77,3.77,0,0,0,2.86,1,3.4,3.4,0,0,0,2.08-.66,3.45,3.45,0,0,0,1.27-1.86h-4.21V30.5h7v3.29A6.72,6.72,0,0,1,134.22,36,6.4,6.4,0,0,1,132,37.71a6.94,6.94,0,0,1-3.05.64,7.28,7.28,0,0,1-3.65-.89,6,6,0,0,1-2.4-2.48,8.24,8.24,0,0,1,0-7.29,6.07,6.07,0,0,1,2.39-2.48,7.19,7.19,0,0,1,3.62-.89A6.86,6.86,0,0,1,133.21,25.59Z"/><path class="cls-2" d="M148.32,38.23l-3-5.2h-.76v5.2h-3.33V24.46h5.69a6.27,6.27,0,0,1,2.77.56,4,4,0,0,1,1.69,1.55,4.43,4.43,0,0,1,.57,2.25,4,4,0,0,1-.83,2.55,4.21,4.21,0,0,1-2.41,1.45L152,38.23Zm-3.74-7.48h2.07a2.09,2.09,0,0,0,1.46-.44,1.68,1.68,0,0,0,.47-1.29,1.71,1.71,0,0,0-.48-1.29,2,2,0,0,0-1.45-.47h-2.07Z"/><path class="cls-2" d="M166.17,35.72H161l-.86,2.51h-3.51l5.05-13.68h3.84l5.05,13.68H167l-.86-2.51Zm-.86-2.53h0l-1.71-5.07-1.73,5.07Z"/><path class="cls-2" d="M185.49,25.7a6.41,6.41,0,0,1,2.23,3.74h-3.53a3.3,3.3,0,0,0-1.2-1.5,3.38,3.38,0,0,0-1.92-.54,3,3,0,0,0-2.36,1.07,4.37,4.37,0,0,0-.89,2.86,4.33,4.33,0,0,0,.89,2.86,2.94,2.94,0,0,0,2.36,1.06,3.38,3.38,0,0,0,1.92-.54,3.27,3.27,0,0,0,1.2-1.49h3.53A6.45,6.45,0,0,1,185.49,37a6.72,6.72,0,0,1-4.36,1.39,6.91,6.91,0,0,1-3.53-.89A6,6,0,0,1,175.26,35a7.73,7.73,0,0,1-.83-3.65,7.72,7.72,0,0,1,.83-3.64,6,6,0,0,1,2.34-2.48,6.91,6.91,0,0,1,3.53-.89A6.77,6.77,0,0,1,185.49,25.7Z"/><polygon class="cls-2" points="196.67 27.11 196.67 29.99 201.32 29.99 201.32 32.5 196.67 32.5 196.67 35.56 201.91 35.56 201.91 38.23 193.34 38.23 193.34 24.46 201.91 24.46 201.91 27.11 196.67 27.11"/><rect class="cls-3" x="65.74" y="43.16" width="0.89" height="4.44"/><polygon class="cls-4" points="71.82 47.6 70.94 47.6 68.95 44.59 68.95 47.6 68.07 47.6 68.07 43.16 68.95 43.16 70.94 46.21 70.94 43.16 71.82 43.16 71.82 47.6"/><polygon class="cls-4" points="76.18 43.16 76.18 43.87 74.95 43.87 74.95 47.6 74.07 47.6 74.07 43.87 72.85 43.87 72.85 43.16 76.18 43.16"/><polygon class="cls-4" points="78.09 43.87 78.09 45.02 79.66 45.02 79.66 45.7 78.09 45.7 78.09 46.89 79.85 46.89 79.85 47.6 77.2 47.6 77.2 43.16 79.85 43.16 79.85 43.87 78.09 43.87"/><path class="cls-4" d="M84.38,43.52a1.76,1.76,0,0,1,.69,1.08h-.93a1.08,1.08,0,0,0-.42-.48,1.25,1.25,0,0,0-.68-.18,1.4,1.4,0,0,0-.68.17,1.18,1.18,0,0,0-.45.51,1.64,1.64,0,0,0-.17.76,1.5,1.5,0,0,0,.38,1.09,1.35,1.35,0,0,0,1,.39,1.24,1.24,0,0,0,.82-.28,1.32,1.32,0,0,0,.44-.79H82.9v-.63h2.24V46a2.08,2.08,0,0,1-1.08,1.41,2.39,2.39,0,0,1-1,.22,2.28,2.28,0,0,1-1.15-.29,1.92,1.92,0,0,1-.77-.8,2.58,2.58,0,0,1,0-2.34,2,2,0,0,1,.77-.8A2.26,2.26,0,0,1,83,43.12,2.13,2.13,0,0,1,84.38,43.52Z"/><path class="cls-4" d="M88.72,47.6l-1-1.73h-.39V47.6H86.4V43.16h1.69a1.67,1.67,0,0,1,1.18.38,1.29,1.29,0,0,1,.41,1,1.34,1.34,0,0,1-.28.85,1.46,1.46,0,0,1-.81.45L89.7,47.6Zm-1.43-2.34H88c.51,0,.76-.22.76-.67a.65.65,0,0,0-.19-.5.78.78,0,0,0-.57-.18h-.73Z"/><path class="cls-4" d="M93.64,46.71H91.86l-.31.89h-.94l1.64-4.39h1l1.63,4.39H94l-.31-.89ZM93.4,46h0l-.65-1.88L92.1,46Z"/><polygon class="cls-4" points="99.66 47.6 98.78 47.6 96.79 44.59 96.79 47.6 95.91 47.6 95.91 43.16 96.79 43.16 98.78 46.21 98.78 43.16 99.66 43.16 99.66 47.6"/><path class="cls-4" d="M104.73,46.54a2,2,0,0,1-.8.78,2.59,2.59,0,0,1-1.25.28H101.1V43.16h1.58a2.71,2.71,0,0,1,1.25.28,1.92,1.92,0,0,1,.8.77,2.56,2.56,0,0,1,0,2.33Zm-1-.11h0a1.36,1.36,0,0,0,.4-1,1.4,1.4,0,0,0-.4-1.07,1.53,1.53,0,0,0-1.1-.37H102v2.87h.62A1.53,1.53,0,0,0,103.71,46.43Z"/><path class="cls-4" d="M109.4,43.39a2.05,2.05,0,0,1,.79.81,2.26,2.26,0,0,1,.3,1.17,2.33,2.33,0,0,1-.3,1.18,2.19,2.19,0,0,1-.79.81,2.28,2.28,0,0,1-1.13.28,2.26,2.26,0,0,1-1.13-.28,2.22,2.22,0,0,1-.8-.81,2.43,2.43,0,0,1-.29-1.18,2.36,2.36,0,0,1,.29-1.17,2.08,2.08,0,0,1,.8-.81,2.26,2.26,0,0,1,1.13-.29,2.29,2.29,0,0,1,1.13.29Zm-1.82.7h0a1.27,1.27,0,0,0-.46.51,1.83,1.83,0,0,0,0,1.54,1.27,1.27,0,0,0,.46.51,1.41,1.41,0,0,0,.69.17,1.34,1.34,0,0,0,.68-.17,1.2,1.2,0,0,0,.46-.51,1.83,1.83,0,0,0,0-1.54,1.2,1.2,0,0,0-.46-.51,1.34,1.34,0,0,0-.68-.17A1.41,1.41,0,0,0,107.58,44.09Z"/><path class="cls-4" d="M117.16,43.55a2,2,0,0,1,.72,1.16H117a1.21,1.21,0,0,0-.45-.57,1.33,1.33,0,0,0-.73-.2,1.21,1.21,0,0,0-.63.17,1.16,1.16,0,0,0-.44.51,1.89,1.89,0,0,0,0,1.52,1.16,1.16,0,0,0,.44.51,1.21,1.21,0,0,0,.63.17,1.26,1.26,0,0,0,.73-.21,1.14,1.14,0,0,0,.45-.56h.93a2,2,0,0,1-.72,1.16,2.15,2.15,0,0,1-1.38.43,2.2,2.2,0,0,1-1.12-.29,1.93,1.93,0,0,1-.75-.8,2.67,2.67,0,0,1,0-2.34,1.87,1.87,0,0,1,.75-.8,2.17,2.17,0,0,1,1.12-.29A2.15,2.15,0,0,1,117.16,43.55Z"/><polygon class="cls-4" points="119.99 46.92 121.48 46.92 121.48 47.6 119.1 47.6 119.1 43.16 119.99 43.16 119.99 46.92"/><rect class="cls-3" x="122.52" y="43.16" width="0.89" height="4.44"/><polygon class="cls-4" points="125.73 43.87 125.73 45.02 127.3 45.02 127.3 45.7 125.73 45.7 125.73 46.89 127.49 46.89 127.49 47.6 124.85 47.6 124.85 43.16 127.49 43.16 127.49 43.87 125.73 43.87"/><polygon class="cls-4" points="132.53 47.6 131.64 47.6 129.66 44.59 129.66 47.6 128.77 47.6 128.77 43.16 129.66 43.16 131.64 46.21 131.64 43.16 132.53 43.16 132.53 47.6"/><polygon class="cls-4" points="136.89 43.16 136.89 43.87 135.66 43.87 135.66 47.6 134.77 47.6 134.77 43.87 133.56 43.87 133.56 43.16 136.89 43.16"/><polygon class="cls-4" points="138.79 43.87 138.79 45.02 140.37 45.02 140.37 45.7 138.79 45.7 138.79 46.89 140.56 46.89 140.56 47.6 137.91 47.6 137.91 43.16 140.56 43.16 140.56 43.87 138.79 43.87"/><polygon class="cls-4" points="144.72 43.87 144.72 45.02 146.29 45.02 146.29 45.7 144.72 45.7 144.72 46.89 146.48 46.89 146.48 47.6 143.83 47.6 143.83 43.16 146.48 43.16 146.48 43.87 144.72 43.87"/><path class="cls-4" d="M150.65,46V47.6h-.89V43.16h1.61a1.68,1.68,0,0,1,1.19.38,1.36,1.36,0,0,1,.4,1,1.32,1.32,0,0,1-.41,1,1.7,1.7,0,0,1-1.18.37Zm1.41-1.38h0a.66.66,0,0,0-.18-.51.83.83,0,0,0-.6-.18h-.63v1.36h.63C151.8,45.24,152.06,45,152.06,44.57Z"/><path class="cls-4" d="M156.35,47.6l-1-1.73h-.39V47.6H154V43.16h1.69a1.67,1.67,0,0,1,1.18.38,1.43,1.43,0,0,1,.12,1.84,1.4,1.4,0,0,1-.8.45l1.1,1.77Zm-1.42-2.34h.72c.51,0,.76-.22.76-.67a.68.68,0,0,0-.18-.5.81.81,0,0,0-.58-.18h-.72Z"/><path class="cls-4" d="M161.64,43.39a2.08,2.08,0,0,1,.8.81,2.36,2.36,0,0,1,.29,1.17,2.43,2.43,0,0,1-.29,1.18,2.22,2.22,0,0,1-.8.81,2.26,2.26,0,0,1-1.13.28,2.22,2.22,0,0,1-1.12-.28,2.14,2.14,0,0,1-.8-.81,2.32,2.32,0,0,1-.29-1.18,2.26,2.26,0,0,1,.29-1.17,2,2,0,0,1,.8-.81,2.22,2.22,0,0,1,1.12-.29,2.26,2.26,0,0,1,1.13.29Zm-1.81.7h0a1.2,1.2,0,0,0-.46.51,1.83,1.83,0,0,0,0,1.54,1.2,1.2,0,0,0,.46.51,1.37,1.37,0,0,0,.68.17,1.41,1.41,0,0,0,.69-.17,1.2,1.2,0,0,0,.46-.51,1.83,1.83,0,0,0,0-1.54,1.2,1.2,0,0,0-.46-.51,1.41,1.41,0,0,0-.69-.17A1.37,1.37,0,0,0,159.83,44.09Z"/><polygon class="cls-4" points="166.72 43.16 166.72 43.87 164.85 43.87 164.85 45.06 166.35 45.06 166.35 45.73 164.85 45.73 164.85 47.6 163.97 47.6 163.97 43.16 166.72 43.16"/><rect class="cls-3" x="167.79" y="43.16" width="0.89" height="4.44"/><path class="cls-4" d="M173,47a1.18,1.18,0,0,1-.5.46,1.67,1.67,0,0,1-.81.17,2,2,0,0,1-.84-.16,1.38,1.38,0,0,1-.6-.46,1.29,1.29,0,0,1-.25-.7h.94a.69.69,0,0,0,.22.45.66.66,0,0,0,.49.18.55.55,0,0,0,.42-.15.52.52,0,0,0,.15-.38.49.49,0,0,0-.12-.34.84.84,0,0,0-.3-.22l-.5-.19a4.8,4.8,0,0,1-.68-.27,1.2,1.2,0,0,1-.45-.39,1.19,1.19,0,0,1-.19-.68,1.08,1.08,0,0,1,.42-.9,1.67,1.67,0,0,1,1.09-.33,1.7,1.7,0,0,1,1.12.34,1.29,1.29,0,0,1,.47.91h-.95a.73.73,0,0,0-.2-.4.64.64,0,0,0-.45-.15.58.58,0,0,0-.4.13.45.45,0,0,0-.15.37.48.48,0,0,0,.12.33,1.14,1.14,0,0,0,.3.21l.48.18a5.94,5.94,0,0,1,.7.28,1.22,1.22,0,0,1,.45.4,1.11,1.11,0,0,1,.19.69A1.23,1.23,0,0,1,173,47Z"/><path class="cls-4" d="M177.24,47a1.18,1.18,0,0,1-.5.46,1.73,1.73,0,0,1-.81.17,2.08,2.08,0,0,1-.85-.16,1.42,1.42,0,0,1-.59-.46,1.38,1.38,0,0,1-.26-.7h1a.73.73,0,0,0,.21.45.7.7,0,0,0,.5.18.57.57,0,0,0,.42-.15.52.52,0,0,0,.15-.38.49.49,0,0,0-.12-.34.84.84,0,0,0-.3-.22l-.5-.19a4.36,4.36,0,0,1-.68-.27,1.2,1.2,0,0,1-.45-.39,1.12,1.12,0,0,1-.19-.68,1.1,1.1,0,0,1,.41-.9,1.71,1.71,0,0,1,1.09-.33,1.73,1.73,0,0,1,1.13.34,1.33,1.33,0,0,1,.47.91h-1a.67.67,0,0,0-.2-.4.62.62,0,0,0-.44-.15.57.57,0,0,0-.4.13.45.45,0,0,0-.15.37.48.48,0,0,0,.12.33.94.94,0,0,0,.29.21l.49.18a5.7,5.7,0,0,1,.69.28,1.25,1.25,0,0,1,.46.4,1.11,1.11,0,0,1,.19.69A1.23,1.23,0,0,1,177.24,47Z"/><rect class="cls-3" x="178.67" y="43.16" width="0.89" height="4.44"/><path class="cls-4" d="M184.15,43.39a2,2,0,0,1,.8.81,2.26,2.26,0,0,1,.29,1.17,2.32,2.32,0,0,1-.29,1.18,2.14,2.14,0,0,1-.8.81,2.22,2.22,0,0,1-1.12.28,2.26,2.26,0,0,1-1.13-.28,2.14,2.14,0,0,1-.8-.81,2.43,2.43,0,0,1-.29-1.18,2.36,2.36,0,0,1,.29-1.17,2,2,0,0,1,.8-.81A2.26,2.26,0,0,1,183,43.1a2.22,2.22,0,0,1,1.12.29Zm-1.81.7h0a1.2,1.2,0,0,0-.46.51,1.83,1.83,0,0,0,0,1.54,1.2,1.2,0,0,0,.46.51,1.41,1.41,0,0,0,.69.17,1.37,1.37,0,0,0,.68-.17,1.2,1.2,0,0,0,.46-.51,1.83,1.83,0,0,0,0-1.54,1.2,1.2,0,0,0-.46-.51,1.37,1.37,0,0,0-.68-.17A1.41,1.41,0,0,0,182.34,44.09Z"/><polygon class="cls-4" points="190.24 47.6 189.35 47.6 187.37 44.59 187.37 47.6 186.48 47.6 186.48 43.16 187.37 43.16 189.35 46.21 189.35 43.16 190.24 43.16 190.24 47.6"/><path class="cls-4" d="M194.29,46.71h-1.78l-.32.89h-.93l1.63-4.39h1l1.63,4.39h-.94l-.3-.89Zm-.24-.67h0l-.66-1.88L192.74,46Z"/><rect class="cls-3" x="196.55" y="43.16" width="0.89" height="4.44"/><path class="cls-4" d="M201.74,47a1.18,1.18,0,0,1-.5.46,1.73,1.73,0,0,1-.81.17,2.08,2.08,0,0,1-.85-.16A1.42,1.42,0,0,1,199,47a1.29,1.29,0,0,1-.25-.7h.94a.73.73,0,0,0,.21.45.7.7,0,0,0,.5.18.57.57,0,0,0,.42-.15.52.52,0,0,0,.15-.38.49.49,0,0,0-.12-.34.84.84,0,0,0-.3-.22l-.5-.19a4.36,4.36,0,0,1-.68-.27,1.2,1.2,0,0,1-.45-.39,1.12,1.12,0,0,1-.19-.68,1.1,1.1,0,0,1,.41-.9,1.71,1.71,0,0,1,1.09-.33,1.73,1.73,0,0,1,1.13.34,1.33,1.33,0,0,1,.47.91h-.95a.74.74,0,0,0-.21-.4.6.6,0,0,0-.44-.15.58.58,0,0,0-.4.13.45.45,0,0,0-.15.37.48.48,0,0,0,.12.33,1.08,1.08,0,0,0,.29.21l.49.18a5.09,5.09,0,0,1,.69.28,1.25,1.25,0,0,1,.46.4,1.11,1.11,0,0,1,.19.69A1.23,1.23,0,0,1,201.74,47Z"/><path class="cls-5" d="M56.48,33.45l-3.75-.37c0-.31-.08-.63-.14-.95A28.77,28.77,0,0,0,51,26.33c3-2.16,3.46-2.31,3.19-2.78-2.26-3.91-2.21-4.12-2.67-4.12-.14,0-3.47,1.53-3.6,1.59a24.23,24.23,0,0,0-4.69-4.69c1.54-3.41,1.84-3.74,1.38-4L40.7,10.06a.48.48,0,0,0-.58.13l-2.19,3.06a25.58,25.58,0,0,0-3.4-1.15c-.33-.08-.81-.2-1.4-.31l-.23,4.46A20.14,20.14,0,0,1,47.54,29.63l.36,1.57a20.1,20.1,0,0,1-17,24.88c-.36,0-.72.08-1.08.1-.05,1,1.53-29.64,2.37-46a9.46,9.46,0,0,1,1-4.29c.27-.51,2.37-4.34,6-4.23a6,6,0,0,1,3.71,1.53,3.15,3.15,0,0,0-2.22,1.6h0a2.16,2.16,0,0,0,0,1.71,3.08,3.08,0,0,0,2.56,2,2.62,2.62,0,0,0,.86-.09,2.78,2.78,0,0,0,2-2.2.5.5,0,0,1,0-.12,4.9,4.9,0,0,0-1.57-4A10.91,10.91,0,0,0,37.23.05c-4.15.46-7.93,3.86-9.71,8.81a17,17,0,0,0-.68,2.54l-1.1.09a24.27,24.27,0,0,0-4,.78,22.87,22.87,0,0,0-2.77,1C16.72,10.14,16.78,10,16.38,10c-.19,0-3.95,2.21-4.12,2.31a.5.5,0,0,0-.18.57l1.56,3.44A24.23,24.23,0,0,0,9,21c-3.41-1.54-3.74-1.84-4-1.38L2.68,23.55a.51.51,0,0,0,.13.59l3.06,2.19a24.25,24.25,0,0,0-1.72,6.42C.43,33.12,0,33,0,33.56v4.52a.49.49,0,0,0,.4.44l3.75.37c.09.71.22,1.45.38,2.23a30.4,30.4,0,0,0,1.34,4.51c-3,2.16-3.46,2.31-3.19,2.78,2.26,3.92,2.21,4.12,2.67,4.12.14,0,3.47-1.53,3.6-1.59a24.56,24.56,0,0,0,4.69,4.7c-1.53,3.39-1.84,3.74-1.38,4l3.92,2.25a.48.48,0,0,0,.58-.12L19,58.72a24.3,24.3,0,0,0,3.12,1.07c.31.08.82.21,1.48.34a32.1,32.1,0,0,0,.28-3.91l0-.53A20.13,20.13,0,0,1,10.35,44.83L9.8,43.28A20.11,20.11,0,0,1,25.4,16c.36-.06.72-.1,1.08-.14,0-.61.05-1.23.07-1.84,0-.22,0-.44,0-.65,0,.21,0,.43,0,.65q-.81,21.12-1.64,42.25c-.11,7.3-2.27,13-5.45,13.93a7.35,7.35,0,0,1-2.5.21,7.17,7.17,0,0,1-3.31-1.25,5.14,5.14,0,0,0,1.95-2.07h0a2.41,2.41,0,0,0-.69-3,2.72,2.72,0,0,0-1-.48l-.12,0a2.51,2.51,0,0,0-3,2.18,3.76,3.76,0,0,0,0,.59A5.1,5.1,0,0,0,12.58,70a10.59,10.59,0,0,0,7.09,1.91c3.79-.48,7.18-3.43,8.89-7.7a15.06,15.06,0,0,0,.93-3.62h0l1.09-.06a24.38,24.38,0,0,0,5.73-1.18c.7-.24,1.26-.47,1.62-.62,2.17,3,2.31,3.45,2.77,3.18,3.95-2.27,4.32-2.33,4.1-2.82l-1.56-3.44a24.56,24.56,0,0,0,4.69-4.7c3.32,1.51,3.74,1.85,4,1.38l2.26-3.91a.49.49,0,0,0-.13-.58L51,45.63a24.15,24.15,0,0,0,1.72-6.42c3.72-.36,4.15-.27,4.15-.81C56.88,33.86,57,33.5,56.48,33.45Z"/><path class="cls-2" d="M44.46,2.12A10.91,10.91,0,0,0,37.23.05c-4.15.46-7.93,3.86-9.71,8.81a17.26,17.26,0,0,0-1,5.13q-.81,21.12-1.64,42.25c-.11,7.3-2.27,13-5.45,13.93a7.35,7.35,0,0,1-2.5.21,7.17,7.17,0,0,1-3.31-1.25,5.14,5.14,0,0,0,1.95-2.07h0a2.41,2.41,0,0,0-.69-3,2.72,2.72,0,0,0-1-.48l-.12,0a2.51,2.51,0,0,0-3,2.18,3.76,3.76,0,0,0,0,.59A5.1,5.1,0,0,0,12.58,70a10.59,10.59,0,0,0,7.09,1.91c3.79-.48,7.18-3.43,8.89-7.7a15.57,15.57,0,0,0,1.05-4.91q1.26-24.57,2.53-49.13a9.46,9.46,0,0,1,1-4.29c.27-.51,2.37-4.34,6-4.23a6,6,0,0,1,3.71,1.53,3.15,3.15,0,0,0-2.22,1.6h0a2.16,2.16,0,0,0,0,1.71,3.08,3.08,0,0,0,2.56,2,2.62,2.62,0,0,0,.86-.09,2.78,2.78,0,0,0,2-2.2.5.5,0,0,1,0-.12A4.9,4.9,0,0,0,44.46,2.12Z"/></g></g></svg>