<svg xmlns="http://www.w3.org/2000/svg" viewBox="0 0 202.24 72.03"><defs><style>.cls-1,.cls-2{fill:#fff;}.cls-2{fill-rule:evenodd;}</style></defs><title>Ativo 1</title><g id="Camada_2" data-name="Camada 2"><g id="Camada_1-2" data-name="Camada 1"><g id="Camada_1-2-2" data-name="Camada 1-2"><rect class="cls-1" x="65.83" y="24.47" width="3.34" height="13.8"/><polygon class="cls-2" points="87.72 38.27 84.38 38.27 78.8 29.8 78.8 38.27 75.46 38.27 75.46 24.48 78.8 24.48 84.38 33.02 84.38 24.48 87.72 24.48 87.72 38.27"/><polygon class="cls-2" points="103.53 24.48 103.53 27.13 99.78 27.13 99.78 38.27 96.42 38.27 96.42 27.13 92.72 27.13 92.72 24.48 103.53 24.48"/><polygon class="cls-2" points="111.86 27.13 111.86 30.02 116.53 30.02 116.53 32.53 111.86 32.53 111.86 35.59 117.11 35.59 117.11 38.27 108.52 38.27 108.52 24.48 117.11 24.48 117.11 27.13 111.86 27.13"/><path class="cls-2" d="M133.39,25.6A5.45,5.45,0,0,1,135.48,29H132a2.71,2.71,0,0,0-1.07-1.18,3.61,3.61,0,0,0-4.28.62,4.15,4.15,0,0,0-1,2.88,4.19,4.19,0,0,0,1,3,3.72,3.72,0,0,0,2.86,1.06,3.39,3.39,0,0,0,3.36-2.52H128.7V30.5h7v3.3A6.86,6.86,0,0,1,134.45,36a6.25,6.25,0,0,1-2.2,1.68,6.72,6.72,0,0,1-3.05.64,7.17,7.17,0,0,1-3.65-.88A6.14,6.14,0,0,1,123.1,35a8.28,8.28,0,0,1,0-7.3,6.18,6.18,0,0,1,2.4-2.49,7.38,7.38,0,0,1,3.62-.89A6.94,6.94,0,0,1,133.39,25.6Z"/><path class="cls-2" d="M148.53,38.27l-3-5.21h-.76v5.21h-3.34V24.47h5.7a6.29,6.29,0,0,1,2.77.57,3.9,3.9,0,0,1,1.69,1.55,4.46,4.46,0,0,1,.57,2.25,4,4,0,0,1-.83,2.56,4.19,4.19,0,0,1-2.41,1.44l3.28,5.43Zm-3.74-7.5h2.06a2,2,0,0,0,1.47-.44,1.7,1.7,0,0,0,.47-1.29,1.74,1.74,0,0,0-.48-1.29,2,2,0,0,0-1.46-.47h-2.06Z"/><path class="cls-2" d="M166.41,35.75h-5.17l-.86,2.52h-3.51l5-13.7h3.84l5.06,13.7h-3.55l-.86-2.52Zm-.86-2.54h0l-1.72-5.07-1.74,5.07Z"/><path class="cls-2" d="M185.75,25.72A6.38,6.38,0,0,1,188,29.47h-3.53a3.35,3.35,0,0,0-1.2-1.51,3.51,3.51,0,0,0-1.92-.54A3,3,0,0,0,179,28.49a4.37,4.37,0,0,0-.9,2.87,4.26,4.26,0,0,0,.9,2.86,2.88,2.88,0,0,0,2.36,1.06,3.28,3.28,0,0,0,1.92-.55,3.12,3.12,0,0,0,1.2-1.48H188A6.4,6.4,0,0,1,185.75,37a6.67,6.67,0,0,1-4.36,1.39,6.85,6.85,0,0,1-3.54-.88A6.12,6.12,0,0,1,175.5,35a8.42,8.42,0,0,1,0-7.3,6.12,6.12,0,0,1,2.35-2.49,7.06,7.06,0,0,1,3.54-.89A6.85,6.85,0,0,1,185.75,25.72Z"/><polygon class="cls-2" points="196.95 27.13 196.95 30.02 201.61 30.02 201.61 32.53 196.95 32.53 196.95 35.59 202.19 35.59 202.19 38.27 193.61 38.27 193.61 24.48 202.19 24.48 202.19 27.13 196.95 27.13"/><rect class="cls-1" x="65.83" y="43.21" width="0.89" height="4.44"/><polygon class="cls-2" points="71.92 47.66 71.04 47.66 69.05 44.63 69.05 47.66 68.16 47.66 68.16 43.22 69.05 43.22 71.04 46.26 71.04 43.22 71.92 43.22 71.92 47.66"/><polygon class="cls-2" points="76.29 43.22 76.29 43.91 75.06 43.91 75.06 47.66 74.17 47.66 74.17 43.91 72.95 43.91 72.95 43.22 76.29 43.22"/><polygon class="cls-2" points="78.2 43.91 78.2 45.06 79.77 45.06 79.77 45.74 78.2 45.74 78.2 46.95 79.96 46.95 79.96 47.66 77.31 47.66 77.31 43.22 79.96 43.22 79.96 43.91 78.2 43.91"/><path class="cls-2" d="M84.5,43.56a1.8,1.8,0,0,1,.69,1.08h-.93a1.14,1.14,0,0,0-.42-.48,1.33,1.33,0,0,0-.68-.18,1.36,1.36,0,0,0-.68.18,1.17,1.17,0,0,0-.46.5,1.75,1.75,0,0,0-.16.77,1.54,1.54,0,0,0,.37,1.09,1.31,1.31,0,0,0,1,.39,1.18,1.18,0,0,0,.82-.29,1.31,1.31,0,0,0,.44-.78H83V45.2h2.24v.86a2,2,0,0,1-1.08,1.4A2.35,2.35,0,0,1,82,47.4a1.94,1.94,0,0,1-.78-.8A2.45,2.45,0,0,1,81,45.43a2.58,2.58,0,0,1,.27-1.18,2,2,0,0,1,.77-.8,2.42,2.42,0,0,1,1.15-.29A2.18,2.18,0,0,1,84.5,43.56Z"/><path class="cls-2" d="M88.84,47.65l-1-1.73h-.39v1.73h-.88V43.21h1.69a1.72,1.72,0,0,1,1.18.37,1.36,1.36,0,0,1,.4,1,1.26,1.26,0,0,1-.28.84,1.23,1.23,0,0,1-.8.45l1.1,1.78Zm-1.43-2.34h.73c.51,0,.76-.23.76-.68a.68.68,0,0,0-.18-.5.86.86,0,0,0-.58-.18h-.73Z"/><path class="cls-2" d="M93.77,46.75H92l-.31.9h-.94l1.64-4.39h1L95,47.65h-.94l-.31-.9Zm-.24-.67h0l-.65-1.87-.65,1.87Z"/><polygon class="cls-2" points="99.81 47.66 98.92 47.66 96.93 44.63 96.93 47.66 96.04 47.66 96.04 43.22 96.93 43.22 98.92 46.26 98.92 43.22 99.81 43.22 99.81 47.66"/><path class="cls-2" d="M104.88,46.58a1.93,1.93,0,0,1-.81.79,2.54,2.54,0,0,1-1.24.28h-1.58V43.21h1.58a2.8,2.8,0,0,1,1.24.27,1.94,1.94,0,0,1,.81.77,2.42,2.42,0,0,1,.27,1.17A2.31,2.31,0,0,1,104.88,46.58Zm-1-.1h0a1.41,1.41,0,0,0,.39-1.06,1.44,1.44,0,0,0-.39-1.06,1.6,1.6,0,0,0-1.11-.38h-.62v2.88h.62a1.51,1.51,0,0,0,1.09-.38Z"/><path class="cls-2" d="M109.55,43.43a2.3,2.3,0,0,1,.8.81,2.51,2.51,0,0,1,0,2.35,2.08,2.08,0,0,1-.8.81,2.35,2.35,0,0,1-2.26,0,2.08,2.08,0,0,1-.8-.81,2.51,2.51,0,0,1,0-2.35,2.3,2.3,0,0,1,.8-.81,2.35,2.35,0,0,1,1.13-.29A2.32,2.32,0,0,1,109.55,43.43Zm-1.81.71h0a1.19,1.19,0,0,0-.47.5,2,2,0,0,0,0,1.55,1.14,1.14,0,0,0,.47.5,1.16,1.16,0,0,0,.68.18,1.21,1.21,0,0,0,.69-.18,1.17,1.17,0,0,0,.46-.5,1.85,1.85,0,0,0,0-1.55,1.23,1.23,0,0,0-.46-.5,1.39,1.39,0,0,0-.69-.18A1.33,1.33,0,0,0,107.74,44.14Z"/><path class="cls-2" d="M117.32,43.59a2,2,0,0,1,.73,1.16h-.93a1.29,1.29,0,0,0-.45-.56,1.38,1.38,0,0,0-.74-.21,1.28,1.28,0,0,0-.63.18,1.12,1.12,0,0,0-.44.5,1.94,1.94,0,0,0,0,1.53,1.07,1.07,0,0,0,.44.5,1.1,1.1,0,0,0,.63.18,1.2,1.2,0,0,0,1.19-.78h.93a2,2,0,0,1-.73,1.17,2.37,2.37,0,0,1-2.5.14,1.93,1.93,0,0,1-.75-.8,2.69,2.69,0,0,1,0-2.35,2.06,2.06,0,0,1,.75-.8,2.32,2.32,0,0,1,1.13-.29A2.17,2.17,0,0,1,117.32,43.59Z"/><polygon class="cls-2" points="120.16 46.98 121.65 46.98 121.65 47.66 119.27 47.66 119.27 43.22 120.16 43.22 120.16 46.98"/><rect class="cls-1" x="122.69" y="43.21" width="0.89" height="4.44"/><polygon class="cls-2" points="125.91 43.91 125.91 45.06 127.48 45.06 127.48 45.74 125.91 45.74 125.91 46.95 127.67 46.95 127.67 47.66 125.02 47.66 125.02 43.22 127.67 43.22 127.67 43.91 125.91 43.91"/><polygon class="cls-2" points="132.72 47.66 131.83 47.66 129.84 44.63 129.84 47.66 128.95 47.66 128.95 43.22 129.84 43.22 131.83 46.26 131.83 43.22 132.72 43.22 132.72 47.66"/><polygon class="cls-2" points="137.08 43.22 137.08 43.91 135.85 43.91 135.85 47.66 134.97 47.66 134.97 43.91 133.75 43.91 133.75 43.22 137.08 43.22"/><polygon class="cls-2" points="138.99 43.91 138.99 45.06 140.56 45.06 140.56 45.74 138.99 45.74 138.99 46.95 140.75 46.95 140.75 47.66 138.1 47.66 138.1 43.22 140.75 43.22 140.75 43.91 138.99 43.91"/><polygon class="cls-2" points="144.93 43.91 144.93 45.06 146.5 45.06 146.5 45.74 144.93 45.74 144.93 46.95 146.69 46.95 146.69 47.66 144.04 47.66 144.04 43.22 146.69 43.22 146.69 43.91 144.93 43.91"/><path class="cls-2" d="M150.86,46v1.65H150V43.21h1.62a1.67,1.67,0,0,1,1.18.37,1.36,1.36,0,0,1,.4,1,1.25,1.25,0,0,1-.41,1,1.62,1.62,0,0,1-1.17.38Zm1.41-1.39h0a.7.7,0,0,0-.18-.51.86.86,0,0,0-.6-.18h-.63v1.37h.63c.51,0,.78-.21.78-.66Z"/><path class="cls-2" d="M156.57,47.65l-1-1.73h-.4v1.73h-.88V43.21H156a1.72,1.72,0,0,1,1.18.37,1.41,1.41,0,0,1,.13,1.84,1.28,1.28,0,0,1-.81.45l1.1,1.78Zm-1.43-2.34h.73c.51,0,.77-.23.77-.68a.68.68,0,0,0-.19-.5.86.86,0,0,0-.58-.18h-.73Z"/><path class="cls-2" d="M161.87,43.43a2.3,2.3,0,0,1,.8.81,2.51,2.51,0,0,1,0,2.35,2.08,2.08,0,0,1-.8.81,2.35,2.35,0,0,1-2.26,0,2.08,2.08,0,0,1-.8-.81,2.51,2.51,0,0,1,0-2.35,2.3,2.3,0,0,1,.8-.81,2.35,2.35,0,0,1,1.13-.29A2.32,2.32,0,0,1,161.87,43.43Zm-1.82.71h0a1.23,1.23,0,0,0-.46.5,2,2,0,0,0,0,1.55,1.17,1.17,0,0,0,.46.5,1.36,1.36,0,0,0,1.38,0,1.17,1.17,0,0,0,.46-.5,1.85,1.85,0,0,0,0-1.55,1.23,1.23,0,0,0-.46-.5A1.41,1.41,0,0,0,160.05,44.14Z"/><polygon class="cls-2" points="166.96 43.22 166.96 43.91 165.09 43.91 165.09 45.1 166.58 45.1 166.58 45.78 165.09 45.78 165.09 47.66 164.2 47.66 164.2 43.22 166.96 43.22"/><rect class="cls-1" x="168.03" y="43.21" width="0.89" height="4.44"/><path class="cls-2" d="M173.23,47.06a1.25,1.25,0,0,1-.51.46,1.74,1.74,0,0,1-.81.17,1.88,1.88,0,0,1-.84-.16,1.35,1.35,0,0,1-.6-.46,1.27,1.27,0,0,1-.25-.71h.94a.74.74,0,0,0,.22.45.64.64,0,0,0,.49.18.6.6,0,0,0,.43-.14.52.52,0,0,0,.15-.38.52.52,0,0,0-.12-.35.85.85,0,0,0-.31-.21l-.5-.19a4.43,4.43,0,0,1-.68-.28,1.13,1.13,0,0,1-.45-.39,1.11,1.11,0,0,1-.18-.67,1.08,1.08,0,0,1,.41-.91,1.76,1.76,0,0,1,1.09-.33,1.85,1.85,0,0,1,1.12.34,1.33,1.33,0,0,1,.48.91h-1a.67.67,0,0,0-.2-.39.68.68,0,0,0-.84,0,.54.54,0,0,0,0,.7,1,1,0,0,0,.3.21l.49.18a7.13,7.13,0,0,1,.69.29,1.13,1.13,0,0,1,.65,1.08A1.24,1.24,0,0,1,173.23,47.06Z"/><path class="cls-2" d="M177.49,47.06a1.17,1.17,0,0,1-.5.46,1.8,1.8,0,0,1-.82.17,1.88,1.88,0,0,1-.84-.16,1.32,1.32,0,0,1-.59-.46,1.36,1.36,0,0,1-.26-.71h1a.76.76,0,0,0,.21.45.68.68,0,0,0,.5.18.6.6,0,0,0,.42-.14.52.52,0,0,0,.15-.38.52.52,0,0,0-.12-.35.9.9,0,0,0-.3-.21l-.51-.19a5.72,5.72,0,0,1-.68-.28,1.2,1.2,0,0,1-.45-.39,1.26,1.26,0,0,1,.23-1.58,1.76,1.76,0,0,1,1.09-.33,1.9,1.9,0,0,1,1.13.34,1.35,1.35,0,0,1,.47.91h-1a.67.67,0,0,0-.2-.39.6.6,0,0,0-.44-.16.64.64,0,0,0-.4.13.49.49,0,0,0-.15.37.48.48,0,0,0,.12.33.66.66,0,0,0,.29.21l.49.18a7.13,7.13,0,0,1,.69.29,1.33,1.33,0,0,1,.46.39,1.27,1.27,0,0,1,0,1.32Z"/><rect class="cls-1" x="178.93" y="43.21" width="0.89" height="4.44"/><path class="cls-2" d="M184.41,43.43a2.22,2.22,0,0,1,.8.81,2.45,2.45,0,0,1,0,2.35,1.9,1.9,0,0,1-.8.81,2.31,2.31,0,0,1-2.25,0,1.9,1.9,0,0,1-.8-.81,2.45,2.45,0,0,1,0-2.35,2.22,2.22,0,0,1,.8-.81A2.36,2.36,0,0,1,184.41,43.43Zm-1.81.71h0a1.17,1.17,0,0,0-.46.5,1.85,1.85,0,0,0,0,1.55,1.12,1.12,0,0,0,.46.5,1.35,1.35,0,0,0,1.37,0,1.12,1.12,0,0,0,.46-.5,1.85,1.85,0,0,0,0-1.55,1.17,1.17,0,0,0-.46-.5A1.39,1.39,0,0,0,182.6,44.14Z"/><polygon class="cls-2" points="190.51 47.66 189.62 47.66 187.63 44.63 187.63 47.66 186.74 47.66 186.74 43.22 187.63 43.22 189.62 46.26 189.62 43.22 190.51 43.22 190.51 47.66"/><path class="cls-2" d="M194.56,46.75h-1.78l-.31.9h-.94l1.64-4.39h1l1.63,4.39h-.94l-.31-.9Zm-.24-.67h0l-.65-1.87L193,46.08Z"/><rect class="cls-1" x="196.83" y="43.21" width="0.89" height="4.44"/><path class="cls-2" d="M202,47.06a1.17,1.17,0,0,1-.5.46,1.74,1.74,0,0,1-.81.17,1.88,1.88,0,0,1-.84-.16,1.35,1.35,0,0,1-.6-.46,1.27,1.27,0,0,1-.25-.71h1a.63.63,0,0,0,.22.45.64.64,0,0,0,.49.18.6.6,0,0,0,.43-.14.59.59,0,0,0,0-.73.81.81,0,0,0-.3-.21l-.5-.19a4.43,4.43,0,0,1-.68-.28,1.13,1.13,0,0,1-.45-.39,1.12,1.12,0,0,1-.19-.67,1.09,1.09,0,0,1,.42-.91,1.76,1.76,0,0,1,1.09-.33,1.85,1.85,0,0,1,1.12.34,1.33,1.33,0,0,1,.48.91h-1A.69.69,0,0,0,201,44a.68.68,0,0,0-.84,0,.45.45,0,0,0-.16.37.48.48,0,0,0,.12.33,1,1,0,0,0,.3.21l.48.18c.24.09.47.18.7.29a1.09,1.09,0,0,1,.64,1.08A1.15,1.15,0,0,1,202,47.06Z"/><path class="cls-2" d="M56.56,33.47l-3.75-.37a6.28,6.28,0,0,0-.14-.94,29.42,29.42,0,0,0-1.59-5.81c3-2.16,3.46-2.31,3.19-2.78-2.26-3.93-2.2-4.13-2.67-4.13-.14,0-3.47,1.53-3.6,1.59a25.2,25.2,0,0,0-4.7-4.7c1.54-3.41,1.85-3.74,1.38-4l-3.92-2.26a.5.5,0,0,0-.58.12L38,13.25a25.18,25.18,0,0,0-3.4-1.15c-.34-.09-.81-.2-1.4-.31L33,16.25a20.19,20.19,0,0,1,14.66,13.4L48,31.23A20.13,20.13,0,0,1,33.41,55.68a19.59,19.59,0,0,1-2.52.46c-.36,0-.72.08-1.08.1,0,1,1.53-29.69,2.38-46.09a9.14,9.14,0,0,1,1-4.29c.27-.51,2.37-4.34,6-4.24A6,6,0,0,1,42.9,3.15a3.17,3.17,0,0,0-2.2,1.61h0a2.12,2.12,0,0,0,0,1.71,3,3,0,0,0,2.57,2,2.09,2.09,0,0,0,.86-.09,2.76,2.76,0,0,0,2-2.2V6.06a4.91,4.91,0,0,0-1.56-4,11.08,11.08,0,0,0-7.29-2c-4.16.47-7.94,3.86-9.72,8.82a17.31,17.31,0,0,0-.68,2.54l-1.1.1A22.84,22.84,0,0,0,19,13.27C16.74,10.13,16.81,10,16.4,10c-.19,0-3.95,2.21-4.12,2.31a.49.49,0,0,0-.18.56l1.56,3.45A25.45,25.45,0,0,0,9,21c-3.41-1.54-3.74-1.85-4-1.38L2.69,23.57a.49.49,0,0,0,.12.58l3.07,2.2a24.39,24.39,0,0,0-1.73,6.43c-3.72.37-4.15.27-4.15.81v4.52a.48.48,0,0,0,.4.44l3.75.37c.1.71.23,1.46.39,2.24a30.5,30.5,0,0,0,1.34,4.52c-3,2.16-3.46,2.31-3.19,2.78,2.26,3.93,2.2,4.13,2.67,4.13.14,0,3.47-1.53,3.6-1.59a24.61,24.61,0,0,0,4.7,4.7c-1.54,3.39-1.85,3.74-1.38,4L16.2,62a.47.47,0,0,0,.58-.12L19,58.78a21.84,21.84,0,0,0,3.13,1.08c.3.08.81.21,1.47.34a31.86,31.86,0,0,0,.29-3.92v-.53A20.16,20.16,0,0,1,10.36,44.88l-.55-1.56a20.16,20.16,0,0,1,11.3-26.16A21,21,0,0,1,25.44,16c.36-.05.72-.1,1.08-.13,0-.62.05-1.23.07-1.85v0L24.94,56.3c-.11,7.31-2.27,13-5.45,14a7.09,7.09,0,0,1-2.51.21,7,7,0,0,1-3.31-1.26,5,5,0,0,0,2-2.07h0a2.42,2.42,0,0,0-.69-3,2.89,2.89,0,0,0-1-.48h-.13a2.51,2.51,0,0,0-2.92,2,.9.9,0,0,0,0,.16,2.91,2.91,0,0,0,0,.59,5.07,5.07,0,0,0,1.76,3.67,10.5,10.5,0,0,0,7,1.89c3.8-.48,7.2-3.43,8.91-7.71a14.94,14.94,0,0,0,.93-3.62h0a5.76,5.76,0,0,0,1.09-.07,24,24,0,0,0,5.74-1.18c.7-.24,1.26-.47,1.62-.62,2.17,3,2.31,3.46,2.78,3.19,4-2.28,4.32-2.34,4.1-2.83L43.3,55.7A24.72,24.72,0,0,0,48,51c3.33,1.5,3.74,1.84,4,1.37l2.26-3.91a.49.49,0,0,0-.12-.58l-3.07-2.2a24.19,24.19,0,0,0,1.73-6.43c3.73-.35,4.2-.25,4.2-.79C57,33.89,57.09,33.53,56.56,33.47Z"/><path class="cls-2" d="M44.53,2.1A11,11,0,0,0,37.28,0c-4.16.47-7.94,3.86-9.72,8.82a17.42,17.42,0,0,0-1,5.14L24.94,56.3c-.11,7.31-2.27,13-5.45,14a7.09,7.09,0,0,1-2.51.21,7,7,0,0,1-3.31-1.26,5,5,0,0,0,2-2.07h0a2.42,2.42,0,0,0-.69-3,2.89,2.89,0,0,0-1-.48h-.13a2.51,2.51,0,0,0-2.92,2,.9.9,0,0,0,0,.16,2.91,2.91,0,0,0,0,.59,5.07,5.07,0,0,0,1.76,3.67,10.5,10.5,0,0,0,7,1.89c3.8-.48,7.2-3.43,8.91-7.71a15.3,15.3,0,0,0,1-4.92q1.27-24.6,2.54-49.2a9.14,9.14,0,0,1,1-4.29c.27-.51,2.37-4.34,6-4.24a6,6,0,0,1,3.71,1.53A3.21,3.21,0,0,0,40.7,4.76h0a2.12,2.12,0,0,0,0,1.71,3,3,0,0,0,2.57,2,2.09,2.09,0,0,0,.86-.09,2.76,2.76,0,0,0,2-2.2V6.06A4.92,4.92,0,0,0,44.53,2.1Z"/></g></g></g></svg>